<svg xmlns="http://www.w3.org/2000/svg" viewBox="0 0 1600 900" role="img" aria-labelledby="title desc">
  <title id="title">Case studies and outcomes banner</title>
  <desc id="desc">Abstract dashboard with growth charts and performance cards.</desc>
  <defs>
    <linearGradient id="bg" x1="0%" x2="100%" y1="0%" y2="100%">
      <stop offset="0%" stop-color="#0a1020" />
      <stop offset="100%" stop-color="#12233f" />
    </linearGradient>
    <linearGradient id="line" x1="0%" x2="100%" y1="0%" y2="0%">
      <stop offset="0%" stop-color="#2dd4bf" />
      <stop offset="100%" stop-color="#38bdf8" />
    </linearGradient>
  </defs>
  <rect width="1600" height="900" fill="url(#bg)" />
  <rect x="120" y="120" width="1360" height="660" rx="28" fill="#0e1b33" stroke="#2d466e" />
  <rect x="180" y="190" width="420" height="520" rx="20" fill="#122543" />
  <rect x="650" y="190" width="770" height="230" rx="20" fill="#10203b" />
  <rect x="650" y="470" width="240" height="240" rx="20" fill="#10203b" />
  <rect x="930" y="470" width="240" height="240" rx="20" fill="#10203b" />
  <rect x="1210" y="470" width="210" height="240" rx="20" fill="#10203b" />
  <path d="M230 620L310 540l95 52 130-165 40 48" fill="none" stroke="url(#line)" stroke-width="14" stroke-linecap="round" stroke-linejoin="round" />
  <circle cx="230" cy="620" r="10" fill="#5eead4" />
  <circle cx="310" cy="540" r="10" fill="#5eead4" />
  <circle cx="405" cy="592" r="10" fill="#5eead4" />
  <circle cx="535" cy="427" r="10" fill="#5eead4" />
  <circle cx="575" cy="475" r="10" fill="#5eead4" />
  <rect x="700" y="242" width="360" height="14" rx="7" fill="#2dd4bf" opacity="0.9" />
  <rect x="700" y="278" width="630" height="12" rx="6" fill="#5eead4" opacity="0.45" />
  <rect x="700" y="308" width="520" height="12" rx="6" fill="#5eead4" opacity="0.3" />
  <rect x="700" y="338" width="580" height="12" rx="6" fill="#5eead4" opacity="0.22" />
  <rect x="700" y="548" width="140" height="18" rx="9" fill="#2dd4bf" opacity="0.85" />
  <rect x="980" y="548" width="140" height="18" rx="9" fill="#2dd4bf" opacity="0.85" />
  <rect x="1240" y="548" width="140" height="18" rx="9" fill="#2dd4bf" opacity="0.85" />
</svg>
