<svg xmlns="http://www.w3.org/2000/svg" viewBox="0 0 1600 900" role="img" aria-labelledby="title desc">
  <title id="title">Terms of use banner</title>
  <desc id="desc">Abstract legal document illustration with checklist items.</desc>
  <defs>
    <linearGradient id="bg" x1="0%" x2="100%" y1="0%" y2="100%">
      <stop offset="0%" stop-color="#0b1324" />
      <stop offset="100%" stop-color="#15263f" />
    </linearGradient>
  </defs>
  <rect width="1600" height="900" fill="url(#bg)" />
  <circle cx="280" cy="180" r="200" fill="#2dd4bf" opacity="0.12" />
  <rect x="310" y="120" width="980" height="660" rx="32" fill="#0f1d35" stroke="#314a73" />
  <rect x="380" y="210" width="840" height="90" rx="16" fill="#142947" />
  <rect x="450" y="245" width="420" height="18" rx="9" fill="#2dd4bf" />
  <g>
    <circle cx="450" cy="390" r="18" fill="#2dd4bf" />
    <path d="M442 390l6 6 11-11" fill="none" stroke="#05212d" stroke-width="4" stroke-linecap="round" stroke-linejoin="round" />
    <rect x="490" y="380" width="640" height="18" rx="9" fill="#5eead4" opacity="0.5" />
  </g>
  <g>
    <circle cx="450" cy="480" r="18" fill="#2dd4bf" />
    <path d="M442 480l6 6 11-11" fill="none" stroke="#05212d" stroke-width="4" stroke-linecap="round" stroke-linejoin="round" />
    <rect x="490" y="470" width="590" height="18" rx="9" fill="#5eead4" opacity="0.5" />
  </g>
  <g>
    <circle cx="450" cy="570" r="18" fill="#2dd4bf" />
    <path d="M442 570l6 6 11-11" fill="none" stroke="#05212d" stroke-width="4" stroke-linecap="round" stroke-linejoin="round" />
    <rect x="490" y="560" width="620" height="18" rx="9" fill="#5eead4" opacity="0.5" />
  </g>
  <rect x="380" y="660" width="840" height="60" rx="16" fill="#142947" />
</svg>
